<?xml version="1.0" standalone="no"?>
<!DOCTYPE svg PUBLIC "-//W3C//DTD SVG 20010904//EN"
 "http://www.w3.org/TR/2001/REC-SVG-20010904/DTD/svg10.dtd">
<svg version="1.0" xmlns="http://www.w3.org/2000/svg"
 width="1188.000000pt" height="1188.000000pt" viewBox="0 0 1188.000000 1188.000000"
 preserveAspectRatio="xMidYMid meet">
<metadata>
Created by potrace 1.11, written by Peter Selinger 2001-2013
</metadata>
<g transform="translate(0.000000,1188.000000) scale(0.100000,-0.100000)"
fill="#000000" stroke="none">
<path d="M5619 11506 c-2 -2 -59 -6 -126 -10 -67 -4 -130 -9 -140 -10 -10 -2
-49 -7 -88 -10 -223 -21 -540 -77 -813 -142 -806 -192 -1606 -570 -2247 -1063
-110 -84 -196 -152 -205 -161 -3 -3 -52 -45 -110 -95 -113 -97 -407 -386 -507
-500 -513 -584 -880 -1215 -1113 -1915 -107 -323 -191 -680 -225 -965 -3 -27
-8 -61 -10 -75 -2 -14 -7 -61 -11 -105 -3 -44 -8 -89 -11 -100 -9 -35 -11
-686 -3 -785 22 -265 49 -464 91 -668 237 -1171 862 -2235 1789 -3047 122
-106 369 -302 460 -364 19 -13 69 -47 110 -76 274 -191 664 -404 1000 -548
562 -240 1065 -376 1705 -462 60 -8 252 -26 365 -34 119 -9 791 -7 870 2 25 3
79 8 120 12 41 3 88 8 105 10 16 2 51 7 78 10 26 3 68 8 95 11 51 6 361 59
402 69 14 3 40 8 59 11 19 3 95 21 170 39 800 197 1521 531 2166 1004 817 598
1474 1415 1849 2296 26 61 51 119 56 130 68 147 226 658 264 855 45 233 70
388 81 500 4 36 8 76 11 90 12 76 19 269 19 530 0 340 -6 439 -41 705 -36 278
-114 619 -206 905 -231 718 -626 1400 -1146 1980 -96 107 -357 367 -441 440
-35 30 -74 65 -87 76 -50 47 -315 255 -418 328 -539 386 -1160 688 -1811 881
-140 41 -396 107 -461 118 -16 3 -74 14 -129 25 -97 20 -324 56 -415 66 -88
10 -136 15 -195 21 -33 3 -85 8 -115 11 -64 7 -784 16 -791 10z"/>
</g>
</svg>
